<svg width="44" height="39" viewBox="0 0 44 39" fill="none" xmlns="http://www.w3.org/2000/svg">
<path fill-rule="evenodd" clip-rule="evenodd" d="M18.8608 0.185936L19.2608 0.364204L18.6813 0.309437C17.6538 0.212316 15.7553 0.531702 14.9747 0.932966L14.5746 1.13862L15.489 1.19439C15.9919 1.22506 16.8149 1.33642 17.3178 1.44194C17.8207 1.54737 18.3607 1.65069 18.5179 1.67151C18.7 1.6957 18.6378 1.71313 18.3465 1.7197C18.095 1.72536 17.6835 1.69013 17.4321 1.64138C17.1806 1.59264 16.5616 1.54992 16.0564 1.54636C14.9323 1.53851 13.397 1.90098 11.8315 2.54405C10.8388 2.95179 10.7679 2.96658 9.80274 2.96658C9.25274 2.96658 8.80264 2.97908 8.80264 2.99442C8.80264 3.00975 9.09169 3.12796 9.44487 3.25712C10.0337 3.47245 10.1789 3.48806 11.1879 3.4447C12.2344 3.3997 13.0767 3.23722 14.0889 2.88507C14.7527 2.65413 14.5962 2.78557 13.7659 3.15644C12.7637 3.60398 11.7963 3.83373 10.9138 3.83373C10.1273 3.83373 8.90299 4.13295 8.03067 4.53841C6.93811 5.0461 5.83091 6.34711 5.83091 7.12325C5.83091 7.45551 5.938 7.46336 6.29678 7.15703C6.84278 6.69087 7.03514 6.70921 6.59716 7.18569C6.16043 7.6608 5.6054 8.53525 5.60346 8.75113C5.60254 8.854 5.63409 8.85537 5.77947 8.75898C6.10522 8.54311 5.19999 10.1854 4.53318 11.02C3.97552 11.7181 3.00628 12.3227 2.44508 12.3227C2.25809 12.3227 2.26301 12.3435 2.49331 12.5274C2.68991 12.6845 2.88215 12.7324 3.31843 12.7328C3.63126 12.7332 3.88728 12.7447 3.88751 12.7583C3.88774 12.772 3.682 12.9616 3.43032 13.1795C3.03885 13.5187 2.23089 14.6047 2.36999 14.6047C2.50737 14.6047 2.98353 14.3482 3.50987 13.9906C4.27692 13.4694 5.46344 12.3578 6.62402 11.0726C7.6432 9.94406 7.85568 9.77072 7.58526 10.2884C6.85227 11.6912 5.79753 12.8994 4.33464 14.012C3.10675 14.9459 1.60454 15.8476 1.14129 15.9289L0.780913 15.992L1.09843 16.2568C1.27319 16.4024 1.49253 16.5216 1.58602 16.5216C1.71655 16.5216 1.70078 16.5694 1.51847 16.7269C1.30245 16.9137 1.03259 17.4943 1.03111 17.7758C1.03065 17.8433 1.26325 17.7746 1.60694 17.6058C2.70979 17.0638 3.2127 16.9619 4.26435 17.0672C4.77686 17.1185 5.55465 17.1605 5.99264 17.1605C6.71557 17.1605 6.76849 17.1727 6.5671 17.2936C6.44514 17.3668 6.0779 17.4755 5.75101 17.5353C5.25028 17.6268 5.02866 17.619 4.34162 17.4856C3.89334 17.3986 3.51193 17.3412 3.4941 17.358C3.47627 17.3749 3.34471 17.6762 3.20173 18.0277C2.85712 18.8744 2.49777 19.437 1.77301 20.264C0.145877 22.1208 -0.340457 23.65 0.228286 25.1207C0.473568 25.7548 1.31422 26.7848 1.5083 26.689C1.57402 26.6565 1.7441 26.4196 1.88617 26.1626L2.14459 25.6951L2.22552 26.5623C2.37433 28.1567 2.74225 29.0307 3.59765 29.8226C3.82648 30.0343 4.16583 30.2941 4.3519 30.3999L4.69022 30.5923L4.76097 30.3097C4.79995 30.1543 4.87436 30.0061 4.92625 29.9804C4.97825 29.9548 5.22536 30.2761 5.47544 30.6944C5.99755 31.5679 6.90747 32.3461 7.34855 32.2961C7.54182 32.2741 7.67852 32.3618 7.92083 32.6634C8.35368 33.202 9.25022 33.873 9.93452 34.1705L10.5001 34.4163L10.5786 34.2187C10.6547 34.0272 10.6657 34.0298 10.932 34.3015C11.247 34.623 11.7971 34.9085 12.2751 34.9986C12.5858 35.0572 12.5686 35.0292 11.9702 34.501C11.3806 33.9808 10.7804 33.1901 10.366 32.3875L10.1924 32.0515L10.8937 32.5027C11.5902 32.951 12.8811 33.5012 14.5102 34.0441C15.276 34.2993 15.3383 34.308 15.1388 34.1314C15.0171 34.0236 14.4032 33.6182 13.7745 33.2303C12.0663 32.1765 10.9542 31.1367 9.96218 29.6658C8.91373 28.1111 8.00256 25.8386 8.00256 24.7783C8.00256 24.2039 8.17046 23.6538 8.31139 23.7663C8.35208 23.7987 8.55278 24.2049 8.75737 24.669C9.93258 27.3333 10.1929 27.8789 10.4689 28.255C10.8174 28.7297 10.9054 28.7413 10.7437 28.2911C10.5726 27.8147 10.6028 27.7842 10.9685 28.0639C11.1537 28.2057 11.4953 28.6139 11.7274 28.971C12.4344 30.0587 13.0966 30.7906 14.3196 31.8364C15.2856 32.6623 15.6133 33.0224 16.2034 33.9062C16.5963 34.4946 16.9177 35.0136 16.9177 35.0593C16.9177 35.1051 16.8278 35.143 16.7177 35.1435C16.3468 35.1454 17.7383 36.034 18.8036 36.4756C20.1154 37.0193 21.1287 37.6147 22.058 38.3876L22.7944 39L22.9629 38.7828C23.2668 38.3911 24.4439 37.5374 25.1577 37.1912C25.8687 36.8463 27.4687 36.3063 28.1165 36.1927C28.3892 36.1449 28.4442 36.1028 28.3512 36.0133C28.1962 35.8642 28.9602 35.2922 29.5786 35.0945C29.8627 35.0036 30.081 34.8443 30.2334 34.6168C30.4071 34.3574 30.661 34.1921 31.2906 33.9286C31.9502 33.6526 32.1193 33.612 32.1193 33.7293C32.1193 33.8103 32.066 33.9561 32.001 34.0532C31.823 34.3187 32.0297 34.2658 32.4487 33.9387C32.9688 33.5326 33.1401 33.2408 33.5641 32.039L33.9344 30.9893L33.9413 31.5027C33.9449 31.7851 33.8712 32.1898 33.7775 32.4021C33.5695 32.8731 33.6208 32.8661 34.7381 32.2719C39.1578 29.9209 42.5048 25.9612 43.5373 21.8614C44.8228 16.7578 43.4134 11.7798 39.5097 7.63515C38.1153 6.15478 35.9549 4.53357 34.1603 3.62096C33.5243 3.29756 33.5143 3.29573 33.4474 3.4949C33.3401 3.81484 33.3657 4.36525 33.4908 4.42705C33.6543 4.50774 33.6319 4.88636 33.4434 5.22866C33.25 5.5799 32.7371 6.09043 32.648 6.02014C32.6133 5.99276 32.6601 5.77059 32.7521 5.52642C32.8441 5.28233 32.914 4.99672 32.9074 4.89175C32.8998 4.77071 32.8459 4.82831 32.76 5.04939L32.6246 5.39798L32.2439 4.70591C31.8993 4.07973 31.3705 3.55989 31.0781 3.55989C31.018 3.55989 31.1727 3.7755 31.4218 4.03911C31.9506 4.59856 32.1193 4.91384 32.1193 5.34294C32.1193 5.59953 32.0844 5.64371 31.9193 5.59697C31.5441 5.49072 31.3359 5.27832 31.2614 4.92571C31.1513 4.40532 30.6087 3.81913 29.8374 3.3871C29.2257 3.04435 29.1617 2.97863 29.2185 2.75152C29.4006 2.02467 28.5991 1.11735 27.3256 0.608559C26.524 0.288169 25.003 0.035873 24.2899 0.10488C23.9633 0.136554 23.974 0.146138 24.5185 0.307976C24.8328 0.401446 25.514 0.635304 26.0324 0.827812C26.8522 1.13232 27.0158 1.23346 27.2896 1.6056C27.4628 1.84092 27.7986 2.23315 28.0358 2.47723C28.2731 2.72122 28.4471 2.92094 28.4229 2.92094C28.3986 2.92094 28.1072 2.87986 27.7755 2.82957C26.9273 2.70114 26.4026 2.83267 25.9029 3.29883C25.6826 3.5044 25.4697 3.79101 25.4299 3.93569C25.3901 4.08046 25.3164 4.19885 25.2662 4.19885C25.1035 4.19885 24.8899 3.65966 24.9511 3.40362L25.0108 3.1547L24.7074 3.44999C24.4175 3.73232 24.3878 3.74017 24.0258 3.63045C23.6839 3.52676 23.5928 3.5389 23.0828 3.75605C22.7724 3.88832 22.5183 3.95714 22.5183 3.90913C22.5183 3.74985 22.7695 3.42699 23.1321 3.12038L23.4898 2.81779L23.1469 2.92149C22.6971 3.05767 20.4752 3.54867 19.6037 3.70457C18.9805 3.81611 17.7967 3.87554 18.3465 3.76774C19.0242 3.63483 23.4135 2.43332 23.6287 2.32187C23.7939 2.23625 24.1922 2.1907 24.7753 2.1907C25.5874 2.1907 26.0989 2.265 27.1759 2.53966C27.3883 2.59379 27.5474 2.59881 27.5474 2.55135C27.5474 2.37308 26.6155 2.10399 25.3679 1.92198C24.6493 1.81719 23.4483 1.5575 22.6991 1.34491C21.528 1.01265 21.3837 0.950765 21.6704 0.903939C21.9877 0.852092 21.9664 0.835388 21.2309 0.56009C20.3628 0.235318 19.3296 -0.00191688 18.8082 0.00383371L18.4608 0.00766743L18.8608 0.185936ZM21.1203 0.0626173C20.9051 0.107618 21.4604 0.381638 22.9214 0.951404C23.6472 1.23446 25.3146 1.55722 26.0044 1.54819C26.7687 1.53815 23.8342 0.433486 22.2518 0.135459C21.5215 -0.00200805 21.4509 -0.00657239 21.1203 0.0626173ZM29.719 0.167589C29.719 0.259781 29.9501 0.619239 30.2327 0.966283C30.5152 1.31342 30.8046 1.76169 30.8758 1.96251C30.9805 2.25752 31.0206 2.29394 31.0849 2.15228C31.1508 2.00696 31.1972 2.04237 31.3561 2.35948C31.4615 2.56988 31.5478 2.90551 31.5478 3.10532C31.5478 3.30513 31.5992 3.46861 31.6621 3.46861C31.7249 3.46861 31.7764 3.36839 31.7764 3.2458C31.7764 2.95827 31.9667 2.86352 32.0621 3.1035C32.1026 3.20536 32.1881 3.26287 32.2521 3.23129C32.4046 3.15598 32.2743 2.61232 32.0014 2.18514C31.8147 1.89286 29.8746 0 29.7618 0C29.7382 0 29.719 0.0753966 29.719 0.167589ZM28.6737 0.710792C29.3157 1.23638 29.8981 2.01901 30.0652 2.58074L30.1528 2.8753L30.1646 2.58311C30.2003 1.68912 29.5877 0.684138 28.8151 0.369407C28.0422 0.0544935 27.9991 0.158552 28.6737 0.710792ZM22.975 2.29823C22.9761 2.43387 21.7643 2.48006 21.3913 2.35857C21.0356 2.24264 21.0668 2.23634 21.9954 2.23634C22.5338 2.23634 22.9747 2.26418 22.975 2.29823ZM32.6948 2.66545C32.6926 2.8512 32.6351 3.21066 32.567 3.46423C32.4011 4.08192 32.4792 4.20907 32.7832 3.8163C33.0715 3.44388 33.1058 2.89611 32.8622 2.55582L32.6989 2.32762L32.6948 2.66545ZM33.4908 3.06324C33.4908 3.14147 33.5431 3.17971 33.607 3.14822C33.6709 3.11664 33.6936 3.05265 33.6574 3.00592C33.5594 2.87931 33.4908 2.90286 33.4908 3.06324ZM28.464 3.19952C28.9343 3.30258 29.5808 3.52457 29.9009 3.69289C30.5308 4.02414 30.7868 4.36032 30.9106 5.0189L30.9876 5.42829L30.6676 5.18676C30.1496 4.79563 29.0128 4.38177 28.4476 4.37849C28.1725 4.37693 27.8475 4.31532 27.7256 4.24157C27.3951 4.04203 26.9009 4.06878 26.8285 4.29013C26.7551 4.51431 26.2732 4.5374 26.0125 4.32929C25.7038 4.08265 25.7899 3.66724 26.2215 3.32257C26.6956 2.94394 27.1771 2.91756 28.464 3.19952ZM27.1406 3.78517C26.9329 3.91068 26.9464 3.91935 27.3531 3.92209C27.5918 3.92373 27.9438 3.98964 28.1349 4.0685C28.4854 4.21327 28.8047 4.19091 28.8047 4.02149C28.8047 3.8749 28.1652 3.65117 27.7464 3.65117C27.5353 3.65117 27.2627 3.71151 27.1406 3.78517ZM23.2898 4.67469C23.6198 4.77163 23.8899 4.89385 23.8899 4.94624C23.8899 5.05441 23.6053 5.01187 22.8642 4.79308C22.4838 4.68071 22.18 4.65807 21.6779 4.70463C20.9443 4.77263 20.8465 4.63462 21.5238 4.48729C21.9763 4.38889 22.5092 4.44539 23.2898 4.67469ZM28.8561 4.75301C28.9244 4.8064 28.9134 4.87879 28.8259 4.94862C28.7172 5.03542 28.6197 5.00348 28.3744 4.80075L28.0617 4.54215L28.4046 4.60513C28.5932 4.63982 28.7964 4.70636 28.8561 4.75301ZM26.8306 4.80166C26.7927 4.83196 26.694 4.83525 26.6116 4.80887C26.5204 4.77975 26.5475 4.75812 26.6807 4.75374C26.8011 4.74981 26.8686 4.77135 26.8306 4.80166ZM19.2152 5.12661C19.4289 5.18503 19.6361 5.27184 19.6757 5.31958C19.7153 5.36732 20.1525 5.41332 20.6473 5.4219C21.986 5.44499 22.954 5.93316 21.6611 5.93316C21.3856 5.93316 21.1347 5.96602 21.1036 6.00627C21.0726 6.04652 21.2163 6.18728 21.4233 6.31918C21.7706 6.54035 22.2897 7.24749 22.2897 7.49905C22.2897 7.5582 21.9051 7.27597 21.4351 6.87187C20.3975 5.97998 19.95 5.80281 19.0712 5.93589C18.7432 5.98555 18.2916 6.00298 18.0677 5.97441C17.7145 5.9295 17.6902 5.93736 17.8839 6.03411C18.0066 6.09536 18.4841 6.16482 18.9448 6.18846C19.6682 6.22552 19.8133 6.26258 20.0075 6.45966C20.3029 6.7596 20.292 6.99446 19.9752 7.1531C19.6353 7.32334 18.9749 7.39992 18.6893 7.30216C18.5059 7.23936 18.5451 7.22266 18.8875 7.21746C19.1902 7.21289 19.423 7.13357 19.6876 6.9448C20.079 6.66549 20.0733 6.48713 19.6781 6.656C19.3759 6.78516 18.2288 6.78288 17.9103 6.65244C17.773 6.59621 17.4852 6.42168 17.2708 6.2645L16.8809 5.9788L17.3656 6.70903C17.6322 7.11066 18.0255 7.57281 18.2396 7.73592C18.5762 7.99242 18.7103 8.03294 19.2305 8.0355C19.7767 8.03815 19.8123 8.05047 19.6169 8.16868C19.2919 8.36511 18.4576 8.43768 18.0548 8.30441C17.6494 8.17032 17.3449 7.78083 16.6826 6.54929C16.4194 6.05976 16.1588 5.65932 16.1037 5.65932C15.9447 5.65932 15.9871 6.68247 16.1656 7.15602C16.3817 7.72944 16.1784 7.67403 15.689 7.02632C15.2199 6.40516 15.1843 5.8824 15.5906 5.57753C15.7984 5.42163 16.065 5.35691 16.705 5.30698C17.1678 5.27092 17.6492 5.19288 17.775 5.13364C18.0696 4.9948 18.7214 4.99161 19.2152 5.12661ZM27.2386 5.16933C27.2783 5.201 27.1512 5.34596 26.9562 5.49145C26.7611 5.63695 26.6263 5.77561 26.6564 5.79971C26.6865 5.82371 27.082 5.7213 27.535 5.57206L28.359 5.30077L27.5472 6.0049C27.1006 6.3922 26.5451 6.80122 26.3127 6.91395C25.7648 7.17957 25.1594 7.17976 24.736 6.91441L24.4083 6.70903L25.1294 6.65381C25.6507 6.61392 25.9185 6.54436 26.0957 6.40279L26.3409 6.20699L25.8869 6.19568C25.6372 6.18947 25.1611 6.1933 24.8289 6.20435C24.2739 6.22269 23.8899 6.11152 23.8899 5.93261C23.8899 5.89436 24.2193 5.84635 24.6218 5.8259C25.221 5.79541 25.4749 5.72787 26.022 5.45321C26.6519 5.13693 27.0745 5.03834 27.2386 5.16933ZM24.4614 5.2942C24.4614 5.3444 24.4162 5.38548 24.3609 5.38548C24.3057 5.38548 23.9615 5.52924 23.5961 5.70496C22.6262 6.17139 22.3515 6.12265 23.1087 5.61833C23.5466 5.3267 23.8231 5.21095 24.0899 5.20758C24.2943 5.20502 24.4614 5.244 24.4614 5.2942ZM31.0867 5.93736C31.6759 6.04004 32.2017 6.14556 32.2551 6.17194C32.3085 6.19832 32.4787 6.4194 32.6335 6.66321C32.7947 6.91715 33.1705 7.27505 33.5132 7.50106C33.8424 7.71812 34.3835 8.10506 34.7157 8.361C35.2887 8.80252 35.3196 8.84999 35.3196 9.28913C35.3196 9.54371 35.3521 9.81946 35.3916 9.90189C35.4313 9.98431 36.51 10.7688 37.7889 11.6451C40.3386 13.3924 40.6734 13.6902 40.0915 13.6933C39.95 13.6941 39.7572 13.7345 39.6629 13.7832C39.5263 13.8536 39.5496 13.8733 39.7772 13.8795C40.0395 13.8867 40.0442 13.8937 39.8343 13.9657C39.4734 14.0896 39.351 14.0702 39.2883 13.8788C39.2388 13.728 39.1115 13.6966 38.4555 13.6735C37.5774 13.6426 37.3246 13.464 38.0268 13.3705C38.7753 13.271 38.8363 13.2404 38.5839 13.0921C38.462 13.0204 38.0859 12.8792 37.7483 12.7784C37.294 12.6426 36.9654 12.449 36.4842 12.0336C36.1265 11.7248 35.3967 11.2056 34.8624 10.8799C34.3281 10.5541 33.9809 10.3128 34.0909 10.3438C34.3029 10.4035 34.3701 10.2731 34.1766 10.1776C34.1138 10.1466 34.0623 9.98075 34.0623 9.80897C34.0623 9.53659 34.0039 9.47297 33.6051 9.31049C33.1926 9.14244 33.1479 9.09023 33.1479 8.7766C33.1479 8.34941 32.7687 7.88379 31.6494 6.93723C30.8826 6.28869 30.8596 6.27664 31.2134 6.70903C31.4187 6.96005 31.7551 7.31704 31.9609 7.50225C32.4412 7.93491 32.6437 8.25585 32.746 8.74711L32.8281 9.14217L32.4794 8.99813C32.0819 8.83401 31.379 8.81603 30.6448 8.95112C30.0706 9.05683 28.9329 8.96728 29.3194 8.84679C29.485 8.79522 29.4063 8.77304 29.0332 8.76619L28.5189 8.7567L28.9475 8.47702C29.1833 8.32331 29.3759 8.15006 29.3757 8.09219C29.3755 8.03431 29.04 7.84847 28.6302 7.67924C27.9542 7.40011 27.4331 7.03344 27.4331 6.83682C27.4331 6.70739 28.1583 6.0939 28.5189 5.91828C28.9715 5.69784 29.7458 5.70359 31.0867 5.93736ZM23.0994 6.81144C23.5276 7.30846 23.7918 7.45049 24.52 7.57509C24.9707 7.65222 25.2085 7.6441 25.6561 7.53648C25.9676 7.46163 26.2405 7.41489 26.2628 7.43269C26.2851 7.4504 26.1365 7.55984 25.9327 7.67568C25.4861 7.92962 24.4596 8.01524 23.835 7.85066C23.2543 7.69759 22.6711 7.26574 22.3395 6.74308C22.1864 6.50183 22.0611 6.28458 22.0611 6.26039C22.0611 6.23629 22.2167 6.25984 22.4069 6.31279C22.606 6.36819 22.8998 6.57978 23.0994 6.81144ZM12.7964 8.5118C12.8001 8.70011 12.7576 8.85409 12.7021 8.85409C12.53 8.85409 12.4622 8.46579 12.5429 7.9413L12.6202 7.43926L12.705 7.80438C12.7517 8.0052 12.7929 8.32358 12.7964 8.5118ZM23.5573 8.38921C23.6576 8.65647 23.6588 8.81986 23.5618 9.04176C23.3587 9.50711 23.3911 9.69843 23.6613 9.62997C23.9448 9.55813 23.9443 9.56909 23.6221 10.4043C23.3585 11.0872 23.3585 11.0872 23.1733 10.8607C22.7477 10.3395 22.6349 9.27964 22.9228 8.50559C23.1345 7.93619 23.3711 7.89274 23.5573 8.38921ZM17.4288 9.21757C17.6419 9.32281 18.0771 9.43353 18.3957 9.46366C18.9806 9.51897 19.1264 9.6097 18.7943 9.71148C17.9805 9.96086 16.6705 9.42523 16.2797 8.68322C15.9914 8.13554 16.1069 8.08926 16.5794 8.5631C16.8333 8.81786 17.2155 9.11232 17.4288 9.21757ZM20.0609 8.60308C20.0609 8.92274 20.1511 9.22852 20.3317 9.52144C20.6021 9.96013 20.6026 9.9604 20.8205 9.77355C20.9405 9.67068 21.1787 9.55914 21.35 9.52573C21.7217 9.45307 21.8284 9.34335 21.8308 9.03127C21.8317 8.90284 21.9131 8.718 22.0116 8.62051C22.18 8.45392 22.1876 8.46579 22.1392 8.81694C22.0671 9.33997 21.679 9.99728 21.3366 10.1765C21.0054 10.3498 20.7504 10.2813 20.1936 9.86985C19.5234 9.37448 19.3765 8.84478 19.7829 8.38894C19.913 8.24316 20.0287 8.12386 20.0401 8.12386C20.0515 8.12386 20.0609 8.33955 20.0609 8.60308ZM34.5739 8.58026C34.6051 8.70576 34.6314 8.91352 34.6322 9.04204C34.6331 9.17047 34.7142 9.35531 34.8123 9.4528C34.9796 9.61874 34.9862 9.60697 34.9168 9.26768C34.876 9.06851 34.7694 8.78098 34.6799 8.62873C34.5399 8.39085 34.5251 8.38401 34.5739 8.58026ZM26.5991 9.27042C26.3977 9.6715 26.0984 10.1835 25.9341 10.4081C25.353 11.2022 25.2158 11.8343 25.3773 12.9729C25.5208 13.9845 25.8359 14.5926 26.537 15.2111L27.033 15.6487L26.5467 15.3468C25.1854 14.502 24.3332 13.068 24.3025 11.5704C24.2889 10.9024 24.1733 10.7643 24.0538 11.273C23.9526 11.7038 23.7756 11.6785 23.7756 11.2334C23.7756 10.8607 24.2523 9.84739 24.5669 9.55183C24.666 9.45864 24.9506 9.29945 25.1991 9.19812L25.6512 9.01383L25.4565 9.23062C25.3496 9.34983 25.1571 9.60286 25.0288 9.79281C24.7574 10.1948 24.8475 10.4511 25.1365 10.0993C25.3889 9.79208 26.8773 8.47109 26.9266 8.51052C26.9478 8.5274 26.8005 8.86943 26.5991 9.27042ZM7.19207 8.83127C7.05972 9.11022 6.68105 9.46366 6.37199 9.59674C6.26089 9.64448 6.41519 9.43618 6.71488 9.13377C7.01446 8.83136 7.27117 8.58318 7.28534 8.58208C7.29951 8.58108 7.25757 8.69326 7.19207 8.83127ZM11.6533 9.82019C11.948 11.1713 11.782 12.2846 11.0935 13.5769C10.8698 13.9966 10.7136 14.5012 10.6314 15.0696C10.4075 16.6167 10.3898 16.7041 10.2998 16.7041C10.2509 16.7041 10.1449 16.5911 10.0644 16.4531C9.92686 16.2177 9.91201 16.2135 9.82537 16.3846C9.77462 16.485 9.72947 16.6884 9.72502 16.8365C9.71233 17.2638 9.49276 16.9885 9.41195 16.444C9.33526 15.9267 9.58397 15.0075 9.96538 14.398L10.1805 14.0544L9.86309 13.9565C9.68844 13.9028 9.22005 13.8746 8.8223 13.8942L8.09902 13.9297L8.86504 13.6212C9.73667 13.2704 10.5937 12.631 10.9114 12.0945C11.2256 11.5642 11.4229 10.7355 11.4275 9.92663C11.4296 9.53759 11.4519 9.21921 11.4768 9.21921C11.5019 9.21921 11.5813 9.48967 11.6533 9.82019ZM31.9369 9.4297C32.1812 9.57246 32.1452 9.98057 31.8847 10.0202C31.7872 10.035 31.4786 9.91284 31.199 9.74872L30.6906 9.45024L31.0906 9.39237C31.7104 9.30273 31.7201 9.30319 31.9369 9.4297ZM33.2197 9.85917C33.4932 10.0605 33.7048 10.2385 33.6897 10.2547C33.6746 10.2709 33.8292 10.4359 34.0331 10.6214C34.237 10.8068 34.5124 11.1321 34.645 11.344C34.7777 11.556 35.0929 11.9003 35.3454 12.1092L35.8044 12.489L35.3398 12.7232C34.756 13.0176 34.1044 13.5335 34.007 13.7786C33.8969 14.0556 33.7194 14.0054 33.7194 13.6973C33.7194 13.342 33.5246 13.2591 33.3616 13.5448L33.2313 13.7731L32.7038 13.4223C32.0058 12.9578 31.3933 12.7079 30.7701 12.6332C30.3807 12.5866 30.3035 12.5524 30.4455 12.4889C30.6158 12.4128 31.742 12.5217 32.1835 12.657C32.2739 12.6847 32.3479 12.665 32.3479 12.6133C32.3479 12.5616 31.975 12.3254 31.5192 12.0886C30.0225 11.3107 29.9003 11.2386 28.864 10.5225L27.8376 9.81307L28.4068 9.70746C28.72 9.64941 29.2773 9.59793 29.6454 9.59309C30.2175 9.58561 30.3753 9.62221 30.7312 9.84493C31.2846 10.1912 31.6292 10.3298 31.8666 10.3016C32.148 10.2681 32.8051 10.5685 32.8051 10.7305C32.8051 10.8061 32.8951 10.8935 33.0051 10.9246C33.115 10.9558 33.2952 11.043 33.4051 11.1185C33.7255 11.3382 33.6408 11.1734 33.0908 10.5067C32.637 9.95656 32.4352 9.49305 32.6494 9.49305C32.6895 9.49305 32.9462 9.65781 33.2197 9.85917ZM20.5181 10.8499C20.7371 10.9506 20.73 10.9667 20.3467 11.2345C20.1266 11.3882 19.8515 11.5558 19.7353 11.6069C19.5455 11.6903 19.5316 11.6723 19.5984 11.4295C19.6537 11.2281 19.6262 11.145 19.4903 11.1034C19.3463 11.0592 19.3339 11.0092 19.4308 10.8644C19.5234 10.7262 19.5106 10.6151 19.3786 10.4112C19.0441 9.89468 19.1934 9.85032 19.7466 10.3019C20.0453 10.5455 20.3924 10.7921 20.5181 10.8499ZM21.1493 12.3622C20.9978 12.7286 21.1089 13.1109 21.5334 13.6845L21.7754 14.0114L21.841 13.4181C21.8771 13.0917 21.9756 12.6604 22.0599 12.4596L22.2131 12.0945L22.4647 12.7508C22.603 13.1117 22.8173 13.544 22.9411 13.7114C23.0648 13.8788 23.1995 14.2116 23.2407 14.4509C23.2817 14.6901 23.3802 14.9767 23.4597 15.0876C23.5933 15.2741 23.6086 15.2551 23.664 14.8329L23.7238 14.3765L23.8824 15.039C24.0238 15.6293 24.0204 15.761 23.8512 16.2471C23.7468 16.5471 23.6613 16.897 23.6613 17.0245C23.6613 17.152 23.4801 17.5436 23.2587 17.8947C23.0374 18.2457 22.8243 18.7194 22.7852 18.9472C22.7052 19.4129 22.5844 19.3827 22.3473 18.8378C22.1021 18.2741 21.998 18.6959 22.1716 19.5497C22.2523 19.9467 22.2928 20.2919 22.2616 20.3169C22.2303 20.3419 22.0857 20.1656 21.9402 19.9252C21.7206 19.5625 21.6629 19.2785 21.6014 18.2559C21.5209 16.9197 21.5085 16.8879 20.6455 15.8103C20.0635 15.0834 20.0394 15.035 19.8908 14.2921C19.7564 13.6199 19.8939 12.8569 20.213 12.5053C20.4128 12.285 21.1435 11.9246 21.2377 11.9999C21.2631 12.0201 21.2233 12.1831 21.1493 12.3622ZM30.4454 13.1324C30.5686 13.1711 30.3534 13.199 29.9311 13.1991C29.5316 13.1991 28.7675 13.2331 28.2332 13.2747C27.5453 13.3281 27.295 13.3217 27.3759 13.2527C27.5581 13.0972 30.0256 13.0005 30.4454 13.1324ZM16.0575 14.1062C15.9671 14.5561 15.8441 15.5459 15.7843 16.3058C15.5864 18.8149 15.9423 20.4934 17.1927 22.9484C17.5275 23.6057 17.9684 24.5336 18.1724 25.0105C18.5602 25.9171 18.9642 26.6141 18.9661 26.3797C18.9666 26.3044 18.8935 25.9758 18.8036 25.6495C18.5711 24.805 18.5779 24.8033 19.1393 25.5693C19.6598 26.2793 20.1293 26.731 21.8322 28.1597C22.433 28.6638 23.0108 29.2633 23.3278 29.7114C24.154 30.8796 24.3585 31.3316 23.7735 30.6964C23.5839 30.4904 22.9023 29.9999 22.2591 29.6063C19.7624 28.0787 18.446 26.8527 17.1867 24.8819C15.9551 22.9546 15.418 21.4661 15.2077 19.3971C15.077 18.1111 15.2021 16.2599 15.4978 15.1067C15.6628 14.4636 16.1313 13.2159 16.1901 13.263C16.2075 13.2769 16.1478 13.6563 16.0575 14.1062ZM36.5769 13.3147C36.7847 13.3567 36.8626 13.4337 36.8626 13.597C36.8626 13.7468 36.9819 13.8858 37.2215 14.0147C37.4189 14.1209 37.8561 14.4004 38.193 14.6358L38.8057 15.0638V15.922C38.8057 16.8165 38.7164 17.0422 38.4694 16.7724C38.2735 16.5584 38.2105 16.5665 37.4268 16.9055C36.7753 17.1873 36.6972 17.1987 35.3205 17.2119C34.4675 17.2201 34.1441 17.2033 34.5185 17.1703C35.012 17.1267 35.1549 17.0779 35.1872 16.9421C35.2191 16.8084 35.177 16.7801 35.0009 16.8168C34.6889 16.8819 34.3921 16.7374 34.6656 16.6536C34.944 16.5683 34.9111 16.3988 34.6278 16.458C34.4698 16.491 34.5633 16.3803 34.9135 16.1199C35.2238 15.8892 35.4339 15.6526 35.4339 15.5339C35.4339 15.2684 35.3389 15.2824 35.2029 15.5681C35.0848 15.8162 34.4277 16.0939 33.7194 16.195C33.3251 16.2513 33.3231 16.2499 33.5766 16.1019C33.7374 16.0078 33.8337 15.8558 33.8337 15.6956C33.8337 15.3814 34.1398 15.3055 34.4401 15.5453C34.6071 15.6787 34.6826 15.6901 34.8154 15.602C34.9608 15.5057 34.9594 15.4644 34.8051 15.2764C34.708 15.1579 34.6743 15.0611 34.7301 15.0611C34.7859 15.0611 34.9676 14.9757 35.1339 14.8712C35.5604 14.6032 35.3873 14.4635 34.9081 14.6892C34.5875 14.8403 34.4661 14.8552 34.2361 14.7715C33.8392 14.6271 33.9893 14.5134 34.5767 14.5134C34.8521 14.5134 35.1093 14.4723 35.1482 14.4221C35.1917 14.3659 34.9992 14.3309 34.6473 14.3309C34.333 14.3309 34.0478 14.2946 34.0135 14.2503C33.884 14.083 34.6649 13.4367 35.1459 13.3131C35.437 13.2382 36.2021 13.2392 36.5769 13.3147ZM39.5951 14.3537C39.4468 14.562 39.1718 14.7873 39.0659 14.7873C39.0085 14.7873 39.0714 14.664 39.2057 14.5134C39.44 14.2506 39.7628 14.1182 39.5951 14.3537ZM22.2326 15.5631C22.2326 15.9899 22.2526 16.339 22.2771 16.339C22.4198 16.339 22.6259 15.9763 22.6289 15.7199C22.632 15.4633 22.3697 14.7873 22.267 14.7873C22.248 14.7873 22.2326 15.1364 22.2326 15.5631ZM25.0221 17.1929C25.1538 17.5371 25.2617 17.9068 25.2619 18.0144C25.2624 18.2602 25.5676 18.6582 26.0932 19.0986C26.3167 19.286 26.5338 19.5633 26.5754 19.7148C26.6171 19.8662 26.6916 19.9902 26.741 19.9902C26.8897 19.9902 26.6823 19.3386 26.3632 18.8035C26.0557 18.2879 25.9305 17.2518 26.1758 17.2518C26.2387 17.2518 26.2901 17.2907 26.2901 17.3382C26.2901 17.3858 26.5552 17.7041 26.8791 18.0456C27.203 18.3872 27.7381 19.0613 28.0682 19.5438C28.3983 20.0262 28.7224 20.4986 28.7882 20.5935C28.854 20.6884 28.98 20.9098 29.0681 21.0855C29.4577 21.8624 29.8091 22.4575 30.2622 23.1078C30.53 23.4921 30.7811 23.9345 30.8203 24.091C30.9149 24.4687 31.0906 24.543 31.0906 24.2053C31.0906 23.8834 30.6734 22.9732 30.1343 22.1187C29.6218 21.3064 29.2185 20.542 29.2777 20.4948C29.3731 20.4186 31.4335 22.1017 31.4335 22.2557C31.4335 22.2988 31.6135 22.4649 31.8335 22.6249C32.0536 22.7847 32.2336 22.9743 32.2336 23.0461C32.2336 23.1179 32.3492 23.2717 32.4907 23.3878C32.6322 23.5038 32.8381 23.7008 32.9483 23.8255C33.4828 24.4303 33.4833 24.4305 33.4872 24.2548C33.4913 24.074 32.9027 23.0999 32.5448 22.6951L32.3135 22.4336L32.5503 22.5349C33.2244 22.8229 33.9456 23.8338 34.3518 25.06C34.7042 26.1237 34.74 26.8997 34.4633 27.4751C34.3546 27.701 34.1694 28.1528 34.0517 28.4791L33.8376 29.0725L33.9029 27.8682C33.9551 26.903 33.9305 26.5611 33.7794 26.1459C33.5835 25.6078 33.2004 25.0522 32.8778 24.8383C32.6296 24.6738 32.64 24.7228 32.9754 25.2982C33.1814 25.6517 33.2603 25.9423 33.2611 26.3515C33.2618 26.6623 33.2198 26.9375 33.1679 26.9632C33.1162 26.9887 32.9626 26.8269 32.8265 26.6034C32.5705 26.1825 32.2535 26.0236 32.4259 26.4025C32.5369 26.6465 32.5229 27.1551 32.3659 28.5704C32.3019 29.1478 32.2427 29.7434 32.2343 29.894C32.2035 30.4483 31.5729 28.6552 31.4478 27.6576C31.2939 26.4305 30.9677 25.397 30.5041 24.6675C30.1027 24.0359 29.3018 23.3062 28.7189 23.0408C28.5146 22.9478 28.3475 22.8371 28.3475 22.7947C28.3475 22.7525 28.3041 22.7391 28.2512 22.7652C28.0936 22.8431 27.4715 22.2626 27.1358 21.7245C26.9464 21.4208 26.4424 20.9158 25.8602 20.4466L24.8979 19.6707L24.9491 20.6748C24.9772 21.227 25.0398 21.7729 25.0883 21.888L25.1763 22.0972L24.7589 21.9006C24.2508 21.6611 23.8524 21.1354 23.6126 20.3878C23.2851 19.3669 23.4469 18.4084 24.1187 17.3883C24.3072 17.1023 24.4614 16.797 24.4614 16.71C24.4614 16.5161 24.5886 16.4027 24.7002 16.4972C24.7457 16.5357 24.8905 16.8488 25.0221 17.1929ZM27.8903 17.1535L28.6332 17.2214L28.1927 17.3787C27.6881 17.5589 27.2486 17.5145 26.8098 17.2388C26.4264 16.9979 26.4385 16.8664 26.833 16.9884C27.0058 17.0418 27.4817 17.1161 27.8903 17.1535ZM38.177 17.26C38.177 17.3147 38.063 17.4332 37.9235 17.5233C37.7344 17.6457 37.7005 17.7189 37.7902 17.8118C37.8564 17.8803 38.0276 18.22 38.1709 18.5665C38.4902 19.3391 38.4529 19.994 38.0728 20.2944C37.8925 20.4368 37.8423 20.45 37.8932 20.3417C37.9322 20.2589 37.9091 20.1641 37.8419 20.1309C37.7692 20.0951 37.718 20.1558 37.7153 20.2814C37.7108 20.4844 37.7044 20.483 37.5402 20.2412C37.319 19.9157 37.1484 19.9213 37.1484 20.2539C37.1484 20.3989 37.0522 20.6124 36.9346 20.7283C36.6993 20.9606 36.7033 20.9643 36.5335 20.3497C36.4598 20.0824 35.8279 19.3512 35.6706 19.3512C35.6109 19.3512 35.593 19.6379 35.6289 20.0176C35.6795 20.5513 35.6512 20.7465 35.4867 20.9988L35.2813 21.3137L35.1912 21.0485C35.1418 20.9025 34.9472 20.6561 34.759 20.5008C34.3408 20.1556 33.8687 19.3362 34.1754 19.4875C34.2407 19.5198 34.2589 19.482 34.2183 19.3977C34.155 19.2659 34.1279 19.2668 33.9339 19.4071C33.774 19.5226 33.7194 19.6889 33.7194 20.0611C33.7194 20.4938 33.6967 20.5451 33.5486 20.4469C33.4545 20.3846 33.3191 20.1776 33.2475 19.9869C33.1606 19.7554 33.0655 19.6561 32.9612 19.688C32.8754 19.7143 32.8051 19.6904 32.8051 19.6348C32.8051 19.4726 32.5982 19.5185 32.5409 19.6935C32.5122 19.7813 32.4846 19.73 32.4794 19.5794C32.46 18.9985 32.7704 18.8045 33.7377 18.7932C33.8421 18.7919 34.1387 18.6305 34.3969 18.4343C34.7395 18.174 35.0897 18.0236 35.693 17.8776C36.1477 17.7676 36.8283 17.5613 37.2055 17.4191C37.9426 17.1413 38.177 17.1029 38.177 17.26ZM17.9018 19.9902C18.252 20.5797 19.2408 21.7216 20.0042 22.4184C20.7444 23.0939 21.2442 23.9354 21.3338 24.6571L21.4062 25.2387L20.1826 24.2803C18.1241 22.6679 17.3237 21.2935 17.0992 18.9861L17.0327 18.3015L17.3182 18.8948C17.4752 19.2211 17.7378 19.7141 17.9018 19.9902ZM9.30989 18.872C9.20953 19.4291 8.8199 20.092 8.22258 20.7224C7.96209 20.9974 7.67475 21.3457 7.58423 21.4963C7.42787 21.7563 7.4225 21.7381 7.47645 21.1312C7.50765 20.7797 7.61555 20.3027 7.71613 20.0711C7.90083 19.646 9.04963 18.4384 9.26931 18.4384C9.34578 18.4384 9.36029 18.5929 9.30989 18.872ZM34.7041 19.0285C34.3862 19.4159 34.4664 19.7916 34.9432 20.1508C35.4169 20.5076 35.549 20.4312 35.25 19.9736C35.1411 19.807 35.048 19.4756 35.043 19.2372C35.0326 18.7465 34.9681 18.7068 34.7041 19.0285ZM23.1851 23.5044C24.7746 25.7776 24.8583 25.8764 25.8893 26.6995C26.4555 27.1514 27.306 27.7135 27.7793 27.9485C28.9938 28.5514 29.6225 29.2264 30.1863 30.5329C30.4524 31.1495 30.4632 31.1602 30.4968 30.8378C30.5397 30.4276 30.0822 29.3083 29.6106 28.6696C29.1811 28.0879 29.1791 28.0545 29.5866 28.2863C30.6762 28.9059 31.3294 29.7391 31.897 31.2333L32.2669 32.2075L31.806 32.67C31.413 33.0641 31.3242 33.1123 31.2039 32.9965C31.1261 32.9217 30.999 32.8606 30.9214 32.8606C30.8437 32.8606 30.4772 33.231 30.1067 33.6837C29.4494 34.4872 29.4324 34.4997 29.3937 34.2086C29.372 34.0445 29.4129 33.4174 29.4847 32.8149C29.7348 30.7167 29.3233 30.0086 27.0487 28.6236C25.6918 27.7975 25.1531 27.2965 23.9683 25.7594C23.4109 25.0362 23.178 24.5993 22.6501 23.2857C22.2526 22.2966 22.3757 22.3469 23.1851 23.5044ZM28.5873 23.3739C28.7699 23.4778 28.9764 23.6479 29.0463 23.7521C29.1309 23.8783 28.9976 23.8242 28.646 23.5895C28.356 23.3959 28.1189 23.2257 28.1189 23.2112C28.1189 23.1439 28.2829 23.2007 28.5873 23.3739ZM31.6639 23.3896C31.6649 23.4528 31.8255 23.6482 32.0207 23.8239C32.2161 23.9996 32.4527 24.2358 32.5464 24.3488C32.7335 24.574 32.9194 24.6193 32.9194 24.4397C32.9194 24.3015 32.1426 23.5209 31.8621 23.3772C31.7095 23.299 31.6625 23.302 31.6639 23.3896ZM27.0767 31.5483C27.0845 31.9211 27.017 32.3643 26.9187 32.5867C26.6008 33.3064 26.7307 33.8782 27.3239 34.3694L27.6578 34.6461L27.4254 35.0212C27.2975 35.2276 27.0905 35.4705 26.9653 35.561C26.7406 35.7234 26.7385 35.7205 26.8118 35.3545C26.8651 35.0881 26.8347 34.9208 26.704 34.7614C25.8551 33.7268 25.8303 31.7103 26.6536 30.6699L26.9064 30.3504L26.9848 30.6242C27.0279 30.7748 27.0693 31.1907 27.0767 31.5483ZM23.6015 31.8266C24.1908 32.443 24.4123 33.1188 24.2515 33.8095C24.0871 34.515 23.201 36.0283 23.0654 35.8348C23.0126 35.7595 22.9015 35.7186 22.8187 35.744C22.7266 35.7722 22.7927 35.5823 22.9885 35.2566C23.5935 34.2499 23.6598 32.777 23.1444 31.7919C22.945 31.4107 22.9433 31.4001 23.0845 31.4001C23.1445 31.4001 23.3771 31.592 23.6015 31.8266Z" fill="#FFC37E"/>
</svg>
