<svg width="37" height="32" viewBox="0 0 37 32" fill="none" xmlns="http://www.w3.org/2000/svg">
<path d="M35.5074 16C35.5074 19.9114 33.7155 23.6626 30.526 26.4284C27.3364 29.1943 23.0105 30.7481 18.4998 30.7481C13.9891 30.7481 9.66314 29.1943 6.4736 26.4284C3.28405 23.6626 1.49219 19.9114 1.49219 16C1.49219 12.0885 3.28405 8.33727 6.4736 5.57146C9.66314 2.80565 13.9891 1.25183 18.4998 1.25183C23.0105 1.25183 27.3364 2.80565 30.526 5.57146C33.7155 8.33727 35.5074 12.0885 35.5074 16Z" fill="#259BD7"/>
<path d="M8.61535 16.5435C8.61535 16.5435 8.17484 16.2004 8.2498 16.0016C8.34403 15.7516 9.08534 15.6854 9.08534 15.6854L25.5351 10.085C25.5351 10.085 26.1255 9.92456 26.3706 10.0398C26.6514 10.1719 26.8406 10.7625 26.8406 10.7625L23.5507 23.1827C23.5507 23.1827 23.3757 23.4091 23.2374 23.4537C23.0084 23.5276 22.5063 23.4085 22.5063 23.4085L18.1719 20.518L15.4564 22.8666L14.7253 22.3698L13.1064 17.9436L8.61535 16.5435Z" fill="white"/>
<path d="M13.1846 17.9437L23.2111 12.3207L23.5766 12.411L23.4461 12.6594L15.5084 18.8695L15.1429 22.6182L14.699 22.3472L13.1846 17.9437Z" fill="#B1C8D3"/>
<path d="M15.5865 18.8921C15.5865 18.9824 18.1192 20.5858 18.1192 20.5858L15.5342 22.844L15.1426 22.5278L15.5865 18.8921Z" fill="#88BDD8"/>
</svg>
