<svg width="20" height="29" viewBox="0 0 20 29" fill="none" xmlns="http://www.w3.org/2000/svg">
<path fill-rule="evenodd" clip-rule="evenodd" d="M6.84625 9.84462C3.27778 12.0526 8.72246 22.9923 12.6273 20.5761C13.3207 21.8633 15.5543 26.0097 16.2478 27.2968C14.6003 28.3163 13.2057 28.959 11.2957 27.7887C5.99229 24.5395 0.154446 13.7071 0.32086 7.24562C0.378515 5.00144 1.6122 4.12216 3.22589 3.12366C3.91933 4.4109 6.15281 8.55737 6.84625 9.84462Z" fill="#FFC37E"/>
<path fill-rule="evenodd" clip-rule="evenodd" d="M8.34223 9.66203C7.95666 9.90063 7.4605 9.75823 7.23787 9.34492L3.82475 3.00897C3.60213 2.59566 3.73499 2.0639 4.12056 1.8253L5.91443 0.715297C6.30006 0.476666 6.79629 0.619203 7.01892 1.03247L10.432 7.36834C10.6547 7.78158 10.5217 8.31334 10.1362 8.55194L8.34223 9.66203Z" fill="#FFC37E"/>
<path fill-rule="evenodd" clip-rule="evenodd" d="M17.6674 26.9709C17.2819 27.2095 16.7857 27.0671 16.5631 26.6538L13.1499 20.3179C12.9273 19.9045 13.0602 19.3728 13.4458 19.1342L15.2396 18.0242C15.6253 17.7856 16.1215 17.9282 16.3441 18.3414L19.7572 24.6773C19.9799 25.0905 19.8469 25.6224 19.4614 25.8609L17.6674 26.9709Z" fill="#FFC37E"/>
</svg>
