<svg width="14" height="22" viewBox="0 0 14 22" fill="none" xmlns="http://www.w3.org/2000/svg">
<path d="M4.20831 14.0697C1.01826 7.54526 1.14668 7.85623 1.13884 6.63696C1.13235 5.62444 1.30815 4.89285 1.76881 4.01555C3.24885 1.19683 6.84198 -0.0203428 9.79716 1.29592C11.1448 1.89618 12.2965 3.10343 12.7603 4.40215C13.0291 5.15476 13.1014 5.63755 13.0701 6.47033C13.0509 6.98271 13.0076 7.33285 12.9264 7.63414C12.8416 7.94876 12.1453 9.4263 10.3469 13.1079C8.99212 15.8814 7.69342 18.5347 7.46094 19.0042L7.03826 19.8577L4.20831 14.0697Z" fill="#FFC37E" stroke="#FFC37E" stroke-width="1.26881"/>
<path d="M7.16323 9.19299C8.78026 9.19299 10.0911 7.8118 10.0911 6.10803C10.0911 4.40425 8.78026 3.02307 7.16323 3.02307C5.54621 3.02307 4.23535 4.40425 4.23535 6.10803C4.23535 7.8118 5.54621 9.19299 7.16323 9.19299Z" fill="white" fill-opacity="0.784314" stroke="#FFC37E" stroke-width="0.827391"/>
</svg>
