<svg width="157" height="34" viewBox="0 0 157 34" fill="none" xmlns="http://www.w3.org/2000/svg">
<path d="M24.0976 33.2312V0.616028H0V33.2312H6.26185V7.18855H17.8358V33.2312H24.0976Z" fill="#EE1B39"/>
<path d="M49.6122 20.6575C51.5025 18.5475 52.5442 15.5421 52.5442 12.2002C52.5442 5.27145 48.2162 0.616028 41.7751 0.616028H29.2881V33.2312H35.5501V23.9896H41.7751C44.9509 23.9896 47.6621 22.8369 49.6122 20.6575ZM35.5501 17.4988V7.10444H41.5082C44.3161 7.10444 46.1282 9.13531 46.1282 12.2818C46.1282 15.4506 44.3139 17.4988 41.5082 17.4988H35.5501Z" fill="#EE1B39"/>
<path d="M157 33.2312V0.616028H150.764L136.833 23.8808L138.095 23.7843V0.616028H131.909V33.2312H138.146L152.532 9.18231L150.814 9.71415V33.2312H157Z" fill="#EE1B39"/>
<path d="M71.0305 0C66.7394 0 62.7634 1.73404 59.8384 4.883C56.911 8.03198 55.2988 12.3089 55.2988 16.9247C55.2988 21.5406 56.911 25.8175 59.8384 28.9665C62.7658 32.1155 66.7418 33.8496 71.0305 33.8496C75.3217 33.8496 79.2977 32.1155 82.2251 28.9665C85.1525 25.8175 86.7645 21.5406 86.7645 16.9247C86.7645 12.3089 85.1525 8.03198 82.2251 4.883C79.2977 1.73404 75.3217 0 71.0305 0ZM71.0305 27.3166C65.7851 27.3166 61.6734 22.7503 61.6734 16.9247C61.6734 11.0993 65.7829 6.53293 71.0305 6.53293C76.2782 6.53293 80.3876 11.0993 80.3876 16.9247C80.3876 22.7503 76.276 27.3166 71.0305 27.3166Z" fill="#EE1B39"/>
<path d="M124.252 26.3049C126.632 23.809 127.945 20.3756 127.945 16.6354C127.945 12.8828 126.635 9.437 124.252 6.93119C121.831 4.38333 118.441 2.98076 114.711 2.98076H112.011V0H106.005V2.98076H103.243C99.5131 2.98076 96.1235 4.38333 93.7019 6.93119C91.3219 9.43453 90.0088 12.8828 90.0088 16.6354C90.0088 20.3756 91.3195 23.809 93.7019 26.3049C96.1235 28.8428 99.5131 30.2405 103.243 30.2405H106.005V33.8471H112.011V30.2405H114.711C118.441 30.2405 121.829 28.8428 124.252 26.3049ZM106.003 23.7842H102.963C99.0899 23.7842 96.3833 20.8456 96.3833 16.6354C96.3833 12.4252 99.0877 9.48649 102.963 9.48649H106.003V23.7842ZM112.009 9.48649H114.99C118.862 9.48649 121.569 12.4252 121.569 16.6354C121.569 20.8456 118.864 23.7842 114.99 23.7842H112.009V9.48649Z" fill="#EE1B39"/>
</svg>
