<svg width="37" height="33" viewBox="0 0 37 33" fill="none" xmlns="http://www.w3.org/2000/svg">
<path d="M19.6562 0C10.0594 0 2.3125 6.90937 2.3125 15.4688C2.3125 18.975 3.58437 22.275 6.0125 24.9563L3.58437 31.5562C3.46875 31.9688 3.58438 32.3813 3.93125 32.6906C4.04688 32.8969 4.39375 33 4.625 33C4.74062 33 4.97188 33 5.0875 32.8969L13.0656 29.7C15.1469 30.525 17.3438 30.9375 19.6562 30.9375C29.2531 30.9375 37 24.0281 37 15.4688C37 6.90937 29.2531 0 19.6562 0Z" fill="#25D366"/>
<path d="M29.7156 21.1406C29.2531 22.3781 27.5187 23.4094 26.0156 23.6156C25.6687 23.7188 25.3219 23.7188 24.8594 23.7188C23.9344 23.7188 22.5469 23.5125 20.1187 22.5844C17.3437 21.5531 14.5687 19.3875 12.3719 16.6031V16.5C11.6781 15.5719 10.4062 13.8188 10.4062 11.9625C10.4062 9.69375 11.6781 8.55938 12.1406 8.04375C12.7187 7.52813 13.5281 7.21875 14.4531 7.21875C14.6844 7.21875 14.8 7.21875 15.0312 7.21875C15.8406 7.21875 16.4187 7.425 16.9969 8.45625L17.4594 9.28125C17.8062 10.1063 18.2687 11.0344 18.3844 11.1375C18.7312 11.7563 18.7312 12.2719 18.3844 12.7875C18.2687 13.0969 18.0375 13.3031 17.8062 13.5094C17.6906 13.7156 17.575 13.8187 17.4594 13.8187C17.3437 13.9219 17.3437 13.9219 17.2281 14.025C17.575 14.5406 18.2687 15.4688 19.1937 16.1906C20.5812 17.325 21.6219 17.6344 22.2 17.8406C22.4312 17.6344 22.6625 17.2219 23.0094 16.9125L23.125 16.7063C23.7031 15.9844 24.6281 15.7781 25.5531 16.0875C26.0156 16.2938 28.5594 17.325 28.5594 17.325L28.7906 17.4281C29.1375 17.6344 29.6 17.7375 29.8312 18.15C30.2937 19.0781 29.9469 20.4187 29.7156 21.1406Z" fill="white"/>
</svg>
